<?xml version="1.0" encoding="UTF-8" standalone="no"?> <svg xmlns="http://www.w3.org/2000/svg" viewBox="0 0 64 64"><g id="Layer_53" data-name="Layer 53"><path d="M9.2,17.38a1.5,1.5,0,0,0,1.5-1.5V10.7h5.18a1.5,1.5,0,0,0,0-3H9.2A1.5,1.5,0,0,0,7.7,9.2v6.68A1.5,1.5,0,0,0,9.2,17.38Z"/><path d="M15.88,53.3H10.7V48.12a1.5,1.5,0,0,0-3,0V54.8a1.5,1.5,0,0,0,1.5,1.5h6.68A1.5,1.5,0,0,0,15.88,53.3Z"/><path d="M54.8,46.62a1.5,1.5,0,0,0-1.5,1.5V53.3H48.12a1.5,1.5,0,0,0,0,3H54.8a1.5,1.5,0,0,0,1.5-1.5V48.12A1.5,1.5,0,0,0,54.8,46.62Z"/><path d="M54.8,7.7H48.12a1.5,1.5,0,0,0,0,3H53.3v5.18a1.5,1.5,0,0,0,3,0V9.2A1.5,1.5,0,0,0,54.8,7.7Z"/><path d="M10.5,32A1.5,1.5,0,0,0,12,33.5H52a1.5,1.5,0,0,0,0-3H12A1.5,1.5,0,0,0,10.5,32Z"/></g></svg>