<?xml version="1.0" encoding="UTF-8"?>
<!DOCTYPE svg PUBLIC "-//W3C//DTD SVG 1.1//EN" "http://www.w3.org/Graphics/SVG/1.1/DTD/svg11.dtd">
<!-- Creator: CorelDRAW -->
<svg xmlns="http://www.w3.org/2000/svg" xml:space="preserve" width="512px" height="512px" version="1.1" style="shape-rendering:geometricPrecision; text-rendering:geometricPrecision; image-rendering:optimizeQuality; fill-rule:evenodd; clip-rule:evenodd"
viewBox="0 0 512 512"
 xmlns:xlink="http://www.w3.org/1999/xlink">
 <defs>
  <style type="text/css">
   <![CDATA[
    .fil0 {fill:black;fill-rule:nonzero}
   ]]>
  </style>
 </defs>
 <g id="Layer_x0020_1">
  <metadata id="CorelCorpID_0Corel-Layer"/>
  <g id="_512869336">
   <g>
    <path class="fil0" d="M7 109l498 0c4,0 7,3 7,7l0 75c0,4 -3,7 -7,7 0,0 -1,0 -1,0 0,0 -1,0 -1,0l-2 0c-16,0 -30,7 -41,17 -10,11 -16,25 -16,41 0,16 6,30 16,41 11,10 25,17 41,17l2 0c0,0 1,0 2,0 3,0 7,2 7,6l0 1 0 0 0 75c0,4 -3,7 -7,7l-498 0c-4,0 -7,-3 -7,-7l0 -75c0,-4 3,-7 7,-7 0,0 1,0 1,0 0,0 1,0 1,0l0 0 0 0 2 0c16,0 30,-7 41,-17 10,-11 16,-25 16,-41 0,-16 -6,-30 -16,-41 -11,-10 -25,-17 -41,-17l-2 0 0 0 0 0c0,0 -1,0 -2,0 -3,0 -7,-2 -7,-6l0 -1 0 0 0 -75c0,-4 3,-7 7,-7zm491 14l-484 0 0 61c18,1 35,9 47,21 13,13 21,31 21,51 0,20 -8,38 -21,51 -12,12 -29,20 -47,21l0 61 484 0 0 -61c-18,-1 -35,-9 -47,-21 -13,-13 -21,-31 -21,-51 0,-20 8,-38 21,-51 12,-12 29,-20 47,-21l0 -61zm-490 191c0,0 1,0 1,0l-1 0z"/>
   </g>
   <path class="fil0" d="M373 116c0,-4 3,-7 7,-7 4,0 7,3 7,7l0 280c0,4 -3,7 -7,7 -4,0 -7,-3 -7,-7l0 -280z"/>
   <path class="fil0" d="M211 219c3,-3 8,-3 10,0 3,3 3,7 0,10l-64 64c-3,3 -7,3 -10,0 -3,-3 -3,-7 0,-10l64 -64z"/>
   <path class="fil0" d="M176 216l0 0c0,0 0,0 1,0 4,5 6,10 6,16 0,6 -2,11 -7,16l0 0 0 0 0 0c-4,4 -10,7 -16,7 -6,0 -12,-3 -16,-7 -5,-5 -7,-10 -7,-16 0,-6 2,-12 7,-16 4,-5 10,-7 16,-7 6,0 12,2 16,7zm-10 10l0 0c-1,-2 -4,-3 -6,-3 -2,0 -4,1 -6,3 -2,1 -3,4 -3,6 0,2 1,4 3,6 2,2 4,3 6,3 2,0 5,-1 6,-3l0 0 0 0c2,-2 3,-4 3,-6 0,-2 -1,-4 -2,-6l-1 0z"/>
   <path class="fil0" d="M225 264l0 0c0,0 0,0 0,1 4,4 6,10 6,15 0,6 -2,12 -6,16l0 0 0 0 0 0c-5,5 -11,7 -17,7 -5,0 -11,-2 -16,-7 -4,-4 -6,-10 -6,-16 0,-6 2,-11 6,-16 5,-4 11,-7 16,-7 6,0 12,3 17,7zm-10 10l0 0c-2,-2 -4,-3 -7,-3 -2,0 -4,1 -6,3 -1,2 -2,4 -2,6 0,2 1,5 2,6 2,2 4,3 6,3 3,0 5,-1 7,-3l0 0 0 0c1,-1 2,-4 2,-6 0,-2 -1,-4 -2,-6l0 0z"/>
   <path class="fil0" d="M296 234c-4,0 -7,-3 -7,-7 0,-4 3,-7 7,-7l64 0c4,0 7,3 7,7 0,4 -3,7 -7,7l-64 0z"/>
   <path class="fil0" d="M296 260c-4,0 -7,-3 -7,-7 0,-4 3,-7 7,-7l64 0c4,0 7,3 7,7 0,4 -3,7 -7,7l-64 0z"/>
   <path class="fil0" d="M296 286c-4,0 -7,-3 -7,-7 0,-3 3,-7 7,-7l64 0c4,0 7,4 7,7 0,4 -3,7 -7,7l-64 0z"/>
   <path class="fil0" d="M189 162l13 12 17 -6c3,-1 7,1 8,5l7 15 18 2c3,0 6,4 6,7l0 17 15 9c3,2 4,6 3,9l0 0 -7 16 10 14c2,3 2,7 -1,10l0 0 -13 11 4 17c0,4 -2,8 -5,9l-16 5 -4 17c-1,4 -5,6 -8,5l-17 -1 -10 14c-3,3 -7,3 -10,2l-15 -9 -15 9c-3,1 -7,1 -9,-2l0 0 -10 -14 -18 1c-3,1 -7,-2 -7,-5l0 0 -4 -17 -17 -6c-3,-1 -5,-4 -4,-8l0 0 3 -17 -13 -11c-2,-3 -3,-7 -1,-10l0 0 11 -14 -7 -16c-2,-3 0,-7 3,-9l15 -9 0 -17c0,-4 2,-7 6,-7l0 0 17 -2 7 -16c2,-3 6,-5 9,-4l0 0 17 6 13 -12c2,-2 6,-2 9,0zm7 25l-12 -10 -11 9c-1,2 -4,3 -7,2l-14 -4 -7 13 0 0c-1,3 -3,4 -5,5l-15 1 -1 15c1,3 -1,5 -3,6l-13 8 6 14c1,2 1,5 -1,7l-9 12 12 11 0 0c1,1 2,4 2,6l-3 15 14 5c2,0 4,2 5,5l3 15 15 -2c2,0 5,1 7,3l9 13 13 -8c2,-1 4,-1 7,0l13 8 9 -13 0 0c1,-2 4,-3 6,-3l15 2 4 -15 0 0c0,-2 2,-4 4,-5l15 -5 -3 -14c-1,-3 0,-6 2,-7l11 -11 -9 -12c-1,-2 -2,-5 0,-7l6 -14 -14 -8 0 0c-2,-1 -3,-3 -3,-6l0 -15 -15 -1c-3,-1 -5,-2 -6,-5l-6 -13 -15 4 0 0c-2,1 -4,0 -6,-1z"/>
  </g>
 </g>
</svg>
